<svg xmlns="http://www.w3.org/2000/svg" width="512" height="512" viewBox="0 0 512 512" fill="none">
  <defs>
    <linearGradient id="gradient" x1="0%" y1="0%" x2="100%" y2="100%">
      <stop offset="0%" stop-color="#7367F0" />
      <stop offset="100%" stop-color="#CE9FFC" />
    </linearGradient>
  </defs>
  <path d="M448 256c0-106-86-192-192-192S64 150 64 256c0 106 86 192 192 192h160c17.7 0 32-14.3 32-32s-14.3-32-32-32H256c-70.7 0-128-57.3-128-128s57.3-128 128-128s128 57.3 128 128v32c0 17.7-14.3 32-32 32s-32-14.3-32-32V256c0-35.3-28.7-64-64-64s-64 28.7-64 64s28.7 64 64 64c17.3 0 33.2-6.9 44.8-18.1c11.6 11.2 27.5 18.1 44.8 18.1c35.5 0 64.3-28.8 64.4-64.3l0-31.7zM256 320c-17.7 0-32-14.3-32-32s14.3-32 32-32s32 14.3 32 32s-14.3 32-32 32z" fill="url(#gradient)"/>
</svg>